<svg width="26" height="26" viewBox="0 0 26 26" fill="none" xmlns="http://www.w3.org/2000/svg">
<path fill-rule="evenodd" clip-rule="evenodd" d="M21.9839 13.8921C22.4165 13.8326 22.75 13.4562 22.75 13.0008C22.75 12.5041 22.3532 12.1013 21.8636 12.1013L6.28232 12.1013L11.9112 6.41188L11.9972 6.31117C12.2554 5.95957 12.2278 5.45979 11.9138 5.13978C11.5684 4.78777 11.0072 4.78659 10.6603 5.13715L3.51029 12.3632L3.50452 12.37C3.47816 12.3972 3.4535 12.4261 3.43069 12.4565L3.42404 12.4642C3.16527 12.8169 3.19405 13.3184 3.51035 13.638L10.6603 20.8629L10.7599 20.9498C11.1075 21.2103 11.5999 21.1802 11.9139 20.8602C12.2593 20.5081 12.258 19.9386 11.9112 19.5881L6.28234 13.9004L21.8636 13.9004L21.9839 13.8921Z" fill="#333335"/>
</svg>
